<svg width="62" height="62" viewBox="0 0 62 62" fill="none" xmlns="http://www.w3.org/2000/svg">
<rect width="62" height="62" fill="black"/>
<path d="M19.1925 31.0931C16.0559 29.0124 15.2795 26.9006 15.2795 25.0683C15.2795 21.6522 17.6708 19.0435 22.3913 19.0435C24.3789 19.0435 26.4907 19.3851 27.4534 19.6646L28.0745 23.9503H28.0124C25.9627 22.6149 24.0994 21.7453 21.7702 21.7453C19.9689 21.7453 18.5714 22.7081 18.5714 24.5404C18.5714 26.0931 19.2547 26.9627 21.3975 28.4223L23.4162 29.7888C26.2733 31.7143 28.2919 33.6397 28.2919 36.559C28.2919 39.4782 26.4286 42.9565 21.1491 42.9565C19.3789 42.9565 17.1739 42.4286 15.6211 41.9006L15 37.677H15.0621C17.6708 39.4472 19.3478 40.441 21.646 40.441C23.8509 40.441 25 39.0124 25 37.2422C25 35.5652 24.1615 34.354 22.2671 33.1118L19.1925 31.0931Z" fill="white"/>
<path d="M33.2919 19.354H39.2857C44.2235 19.354 46.7701 21.59 46.7701 24.6646C46.7701 27.2733 45.1863 29.354 42.4844 30.0683V30.0993C46.0248 30.9068 47.4223 33.1739 47.4223 35.6273C47.4223 39.1056 44.7826 42.6459 38.2298 42.6459H33.2919L33.7577 30.4099L33.2919 19.354ZM36.5838 30.4099L36.9565 40.0372H39.0372C42.236 40.0372 44.1304 38.4844 44.1304 35.3789C44.1304 32.9565 42.1117 31.4347 39.4409 31.2795V29.0745C42.0186 28.7329 43.6645 27.6459 43.6645 25.3788C43.6645 23.5155 42.267 22.118 38.7577 22.118H36.9254L36.5838 30.4099Z" fill="white"/>
</svg>
